<svg width="26" height="26" viewBox="0 0 26 26" fill="none" xmlns="http://www.w3.org/2000/svg">
<circle cx="13" cy="13" r="13" fill="#323632"/>
<path d="M7.42876 14.6029L12.5402 19.5546C12.6446 19.6557 12.6968 19.7062 12.7507 19.7372C12.905 19.8261 13.095 19.8261 13.2493 19.7372C13.3032 19.7062 13.3554 19.6557 13.4598 19.5546L13.4598 19.5546L18.5712 14.6029C19.9588 13.2586 20.1285 11.0916 18.967 9.54782L18.6821 9.16911C17.2632 7.28318 14.3454 7.59296 13.3542 9.73478C13.2145 10.0366 12.7855 10.0366 12.6458 9.73478C11.6546 7.59296 8.73679 7.28318 7.31791 9.16911L7.03299 9.54782C5.87152 11.0916 6.04118 13.2586 7.42876 14.6029Z" stroke="#FEFEFE" stroke-width="0.7"/>
</svg>
